<svg xmlns="http://www.w3.org/2000/svg" xmlns:xlink="http://www.w3.org/1999/xlink" version="1.1" id="Layer_1" x="0px" y="0px" width="100px" height="100px" viewBox="0 0 100 100" enable-background="new 0 0 100 100" xml:space="preserve">
<g>
	<path fill="white" d="M67.167,6.431c-0.372-0.055-0.748-0.083-1.12-0.083c-3.716,0-6.932,2.777-7.479,6.461l-3.057,20.62l-3.059-20.621   c-0.547-3.683-3.763-6.46-7.479-6.46c-0.371,0-0.748,0.028-1.119,0.083c-4.127,0.612-6.987,4.47-6.375,8.598l4.211,28.396   c-0.339-0.047-0.683-0.075-1.03-0.075c-1.476,0-2.911,0.43-4.149,1.244c-1.69,1.109-2.847,2.811-3.257,4.79   c-0.317,1.533-0.152,3.089,0.453,4.501c-0.152-0.01-0.304-0.029-0.457-0.029c-1.476,0-2.911,0.43-4.15,1.244   c-1.69,1.108-2.847,2.811-3.256,4.79c-0.089,0.43-0.125,0.859-0.139,1.29c-0.003,0.043-0.013,0.086-0.013,0.13v0.262v8.076   c0,12.986,10.565,23.551,23.553,23.551c12.985,0,23.552-10.564,23.552-23.551v-5.193c0-0.061-0.012-0.117-0.018-0.176   c0.022-0.113,0.035-0.229,0.034-0.349c-0.026-2.001-0.774-3.928-2.111-5.426l-3.175-3.548l6.014-39.927   C74.154,10.9,71.293,7.042,67.167,6.431z M40.749,14.545c-0.346-2.328,1.266-4.502,3.592-4.847   c2.347-0.339,4.505,1.312,4.844,3.595L53.8,44.415c-1.845,0.117-3.583,0.839-4.983,2.09c-0.437,0.39-0.823,0.817-1.157,1.271   l-0.665-1.008c-0.477-0.727-1.073-1.344-1.742-1.856L40.749,14.545z M36.491,50.053c0.231-1.114,0.882-2.073,1.835-2.698   c0.697-0.458,1.506-0.701,2.335-0.701c1.444,0,2.779,0.721,3.573,1.93l1.9,2.884c-0.355,2.364,0.302,4.864,2.016,6.785l1.091,1.219   c-0.087,0.011-0.175,0.023-0.262,0.05c-0.839,0.244-1.592,0.659-2.237,1.237c-0.591,0.526-1.059,1.157-1.39,1.873   c-0.384,0.828-0.022,1.81,0.805,2.193c0.224,0.104,0.461,0.153,0.693,0.153c0.624,0,1.22-0.355,1.5-0.959   c0.14-0.303,0.339-0.571,0.593-0.796c0.275-0.247,0.597-0.426,0.957-0.529c0.593-0.172,1.008-0.65,1.141-1.212l1.243,1.391   c-0.186,1.137-0.815,2.197-1.851,2.878c-0.698,0.458-1.506,0.7-2.336,0.7c-1.374-0.001-2.643-0.657-3.445-1.76l-0.422-0.617   l-7.127-10.813C36.477,52.308,36.26,51.169,36.491,50.053z M28.998,61.325c0.006-0.255,0.029-0.512,0.082-0.767   c0.231-1.114,0.883-2.073,1.835-2.697c0.699-0.458,1.506-0.701,2.336-0.701c1.443,0,2.778,0.721,3.587,1.953l6.116,8.949   c1.29,1.965,0.74,4.612-1.225,5.902c-0.698,0.458-1.506,0.701-2.335,0.701h0c-1.444-0.001-2.778-0.72-3.585-1.949l-6.116-8.95   c-0.453-0.69-0.686-1.479-0.694-2.286V61.325z M68.238,60.704c0.805,0.902,1.256,2.062,1.271,3.27c0,0.051,0.011,0.1,0.019,0.148   c-0.023,0.108-0.035,0.217-0.035,0.332v0.146v5.047c0,11.164-9.082,20.246-20.247,20.246s-20.248-9.082-20.248-20.246v-1.042   l4.065,5.95c1.404,2.138,3.769,3.414,6.331,3.415c0,0,0,0,0,0c1.475,0,2.909-0.431,4.149-1.242c2.428-1.596,3.634-4.36,3.366-7.077   c0.39,0.062,0.785,0.104,1.188,0.104c0,0,0,0,0,0c1.476,0,2.91-0.431,4.149-1.242c1.119-0.735,1.977-1.722,2.553-2.834l3.492,3.901   c0.326,0.364,0.778,0.55,1.232,0.55c0.392,0,0.784-0.139,1.102-0.422c0.526-0.471,0.668-1.201,0.426-1.825   c-0.069-0.179-0.161-0.354-0.297-0.508L50.614,56.051c-1.84-2.064-1.66-5.241,0.403-7.081c1.001-0.892,2.301-1.338,3.622-1.265   c1.338,0.077,2.566,0.67,3.461,1.673L68.238,60.704z M70.273,14.541l-5.605,37.22l-4.104-4.584   c-0.942-1.058-2.112-1.836-3.41-2.299l4.685-31.583c0.339-2.285,2.496-3.936,4.843-3.596   C69.007,10.043,70.618,12.217,70.273,14.541z"/>
	<path fill="white" d="M57.427,49.7c-0.828-0.385-1.809-0.021-2.195,0.806c-0.285,0.621-0.692,1.167-1.208,1.626   c-0.567,0.507-1.225,0.869-1.949,1.078c-0.878,0.252-1.384,1.168-1.133,2.044c0.208,0.725,0.87,1.195,1.587,1.195   c0.151,0,0.306-0.02,0.457-0.063c1.208-0.347,2.299-0.948,3.236-1.788c0.854-0.76,1.531-1.671,2.009-2.705   C58.615,51.064,58.255,50.083,57.427,49.7z"/>
	<path fill="white" d="M37.217,72.838c0.225,0.104,0.461,0.151,0.693,0.151c0.624,0,1.221-0.354,1.5-0.957c0.14-0.303,0.339-0.571,0.591-0.796   c0.277-0.247,0.598-0.425,0.956-0.527c0.876-0.253,1.383-1.17,1.13-2.047c-0.252-0.876-1.167-1.378-2.046-1.129   c-0.837,0.243-1.591,0.658-2.241,1.238c-0.59,0.527-1.058,1.157-1.389,1.872C36.029,71.472,36.39,72.453,37.217,72.838z"/>
	<path fill="white" d="M66.322,23.199l-3.227-0.488c-0.903-0.138-1.745,0.484-1.88,1.386c-0.139,0.903,0.483,1.745,1.385,1.881l3.227,0.488   c0.084,0.013,0.168,0.019,0.249,0.019c0.804,0,1.509-0.586,1.633-1.405C67.846,24.178,67.225,23.335,66.322,23.199z"/>
	<path fill="white" d="M64.366,36.01l-3.228-0.488c-0.903-0.139-1.744,0.484-1.882,1.386c-0.136,0.902,0.484,1.745,1.387,1.881l3.228,0.488   c0.084,0.013,0.167,0.019,0.25,0.019c0.803,0,1.508-0.586,1.63-1.405C65.889,36.988,65.268,36.146,64.366,36.01z"/>
	<path fill="white" d="M48.521,25.978c0.902-0.137,1.523-0.979,1.386-1.881c-0.137-0.902-0.977-1.511-1.881-1.386l-3.228,0.488   c-0.902,0.136-1.522,0.979-1.386,1.881c0.124,0.819,0.829,1.405,1.631,1.405c0.083,0,0.166-0.007,0.25-0.019L48.521,25.978z"/>
	<path fill="white" d="M45.37,37.891c0.124,0.818,0.828,1.405,1.631,1.405c0.083,0,0.165-0.006,0.249-0.019l3.228-0.488   c0.902-0.136,1.522-0.979,1.386-1.881s-0.978-1.512-1.881-1.386l-3.228,0.488C45.854,36.146,45.233,36.988,45.37,37.891z"/>
</g>
</svg>